# Blender 3.6.4
# www.blender.org
mtllib circle_wall.mtl
o Cube
v -4.046926 4.000000 19.952991
v -4.046926 -0.000000 19.952991
v -3.888899 4.000000 19.168755
v -3.888899 0.000000 19.168755
v 4.046916 4.000000 19.952991
v 4.046916 0.000000 19.952991
v 3.888890 4.000000 19.168755
v 3.888890 -0.000000 19.168755
v -11.502260 4.000000 16.799379
v -11.502261 -0.000000 16.799377
v -11.049876 4.000000 16.139568
v -11.049876 0.000000 16.139568
v -4.046926 4.000000 19.952991
v -4.046926 -0.000000 19.952991
v -3.888899 4.000000 19.168755
v -3.888899 0.000000 19.168755
v -17.143883 4.000000 10.992111
v -17.143883 -0.000000 10.992112
v -16.470730 4.000000 10.559834
v -16.470730 0.000000 10.559834
v -11.502260 4.000000 16.799379
v -11.502261 -0.000000 16.799377
v -11.049876 4.000000 16.139568
v -11.049876 0.000000 16.139568
v -20.076080 4.000000 3.443705
v -20.076080 0.000000 3.443705
v -19.287407 4.000000 3.309553
v -19.287407 -0.000000 3.309553
v -17.143883 4.000000 10.992111
v -17.143883 -0.000000 10.992112
v -16.470730 4.000000 10.559834
v -16.470730 0.000000 10.559834
v -19.829542 4.000000 -4.650070
v -19.829542 0.000000 -4.650071
v -19.050463 4.000000 -4.468316
v -19.050463 -0.000000 -4.468316
v -20.076080 4.000000 3.443705
v -20.076080 0.000000 3.443705
v -19.287407 4.000000 3.309553
v -19.287407 -0.000000 3.309553
v -16.454573 4.000000 -12.012203
v -16.454573 0.000000 -12.012203
v -15.808706 4.000000 -11.540125
v -15.808706 0.000000 -11.540125
v -19.829542 4.000000 -4.650070
v -19.829542 0.000000 -4.650071
v -19.050463 4.000000 -4.468316
v -19.050463 -0.000000 -4.468316
v -10.481763 4.000000 -17.488083
v -10.481764 0.000000 -17.488083
v -10.069984 4.000000 -16.802198
v -10.069984 -0.000000 -16.802198
v -16.454573 4.000000 -12.012203
v -16.454573 0.000000 -12.012203
v -15.808706 4.000000 -11.540125
v -15.808706 0.000000 -11.540125
v -2.840415 4.000000 -20.198805
v -2.840415 0.000000 -20.198805
v -2.730261 4.000000 -19.406425
v -2.730261 -0.000000 -19.406425
v -10.481763 4.000000 -17.488083
v -10.481764 0.000000 -17.488083
v -10.069984 4.000000 -16.802198
v -10.069984 -0.000000 -16.802198
v 5.253144 4.000000 -19.705732
v 5.253144 -0.000000 -19.705732
v 5.047828 4.000000 -18.932529
v 5.047828 0.000000 -18.932529
v -2.840415 4.000000 -20.198805
v -2.840415 0.000000 -20.198805
v -2.730261 4.000000 -19.406425
v -2.730261 -0.000000 -19.406425
v 12.516643 4.000000 -16.102621
v 12.516643 0.000000 -16.102621
v 12.025308 4.000000 -15.471281
v 12.025308 -0.000000 -15.471281
v 5.253144 4.000000 -19.705732
v 5.253144 -0.000000 -19.705732
v 5.047828 4.000000 -18.932529
v 5.047828 0.000000 -18.932529
v 17.789438 4.000000 -9.946262
v 17.789438 0.000000 -9.946263
v 17.091406 4.000000 -9.555430
v 17.091406 -0.000000 -9.555431
v 12.516643 4.000000 -16.102621
v 12.516643 0.000000 -16.102621
v 12.025308 4.000000 -15.471281
v 12.025308 -0.000000 -15.471281
v 20.250607 4.000000 -2.227727
v 20.250607 -0.000000 -2.227727
v 19.455288 4.000000 -2.141309
v 19.455288 0.000000 -2.141309
v 17.789438 4.000000 -9.946262
v 17.789438 0.000000 -9.946263
v 17.091406 4.000000 -9.555430
v 17.091406 -0.000000 -9.555431
v 19.525925 4.000000 5.840845
v 19.525925 -0.000000 5.840845
v 18.759321 4.000000 5.612110
v 18.759321 0.000000 5.612109
v 20.250607 4.000000 -2.227727
v 20.250607 -0.000000 -2.227727
v 19.455288 4.000000 -2.141309
v 19.455288 0.000000 -2.141309
v 15.696353 4.000000 12.979012
v 15.696353 -0.000000 12.979012
v 15.080062 4.000000 12.468928
v 15.080062 0.000000 12.468928
v 19.525925 4.000000 5.840845
v 19.525925 -0.000000 5.840845
v 18.759321 4.000000 5.612110
v 18.759321 0.000000 5.612109
v 9.396223 4.000000 18.065922
v 9.396224 0.000000 18.065922
v 9.026737 4.000000 17.356359
v 9.026737 -0.000000 17.356359
v 15.696353 4.000000 12.979012
v 15.696353 -0.000000 12.979012
v 15.080062 4.000000 12.468928
v 15.080062 0.000000 12.468928
vn -0.0000 1.0000 -0.0000
vn -0.0000 -0.0000 -1.0000
vn 0.9803 -0.0000 -0.1975
vn -0.0000 -1.0000 -0.0000
vn -0.9803 -0.0000 -0.1975
vn -0.0000 -0.0000 1.0000
vn 0.3896 -0.0000 -0.9210
vn 0.9803 -0.0000 0.1975
vn -0.8248 -0.0000 -0.5655
vn -0.3896 -0.0000 0.9210
vn 0.7172 -0.0000 -0.6968
vn 0.8248 -0.0000 0.5655
vn -0.5403 -0.0000 -0.8414
vn -0.7173 -0.0000 0.6968
vn 0.9321 -0.0000 -0.3621
vn 0.5403 -0.0000 0.8414
vn -0.1677 -0.0000 -0.9858
vn -0.9321 -0.0000 0.3621
vn 0.9995 -0.0000 0.0304
vn 0.1677 -0.0000 0.9858
vn 0.2272 -0.0000 -0.9738
vn -0.9995 -0.0000 -0.0304
vn 0.9090 -0.0000 0.4167
vn -0.2272 -0.0000 0.9738
vn 0.5901 -0.0000 -0.8073
vn -0.9090 -0.0000 -0.4167
vn 0.6758 -0.0000 0.7371
vn -0.5901 -0.0000 0.8073
vn 0.8574 -0.0000 -0.5147
vn -0.6758 -0.0000 -0.7371
vn 0.3344 -0.0000 0.9424
vn -0.8574 -0.0000 0.5147
vn 0.9905 -0.0000 -0.1377
vn -0.3343 -0.0000 -0.9425
vn -0.0608 -0.0000 0.9981
vn -0.9905 -0.0000 0.1377
vn 0.9665 -0.0000 0.2566
vn 0.0608 -0.0000 -0.9981
vn -0.4444 -0.0000 0.8958
vn -0.9665 -0.0000 -0.2566
vn 0.7892 -0.0000 0.6142
vn 0.4444 -0.0000 -0.8958
vn -0.7596 -0.0000 0.6504
vn -0.7892 -0.0000 -0.6142
vn 0.4885 -0.0000 0.8725
vn 0.7595 -0.0000 -0.6505
vn -0.9527 -0.0000 0.3038
vn -0.4885 -0.0000 -0.8725
vn 0.1080 -0.0000 0.9941
vn 0.9527 -0.0000 -0.3038
vn -0.9960 -0.0000 -0.0894
vn -0.1080 -0.0000 -0.9941
vn -0.2859 -0.0000 0.9583
vn 0.9960 -0.0000 0.0895
vn -0.8812 -0.0000 -0.4728
vn 0.2859 -0.0000 -0.9583
vn -0.6376 -0.0000 0.7704
vn 0.8812 -0.0000 0.4728
vn -0.6282 -0.0000 -0.7781
vn 0.6376 -0.0000 -0.7704
vn -0.8870 -0.0000 0.4619
vn 0.6282 -0.0000 0.7780
vn 0.9995 -0.0000 0.0305
vt 0.833247 0.000129
vt 0.000129 0.083441
vt 0.000129 0.000129
vt 0.833247 0.500000
vt 0.000129 0.500000
vt 0.833505 0.416945
vt 0.916816 0.833505
vt 0.833505 0.833505
vt 0.000129 0.583312
vt 0.833247 0.583312
vt 0.833505 0.000129
vt 0.916816 0.416688
vt 0.833505 0.416688
vt 0.833247 0.999871
vt 0.833247 0.083440
vt 0.000129 0.999871
vt 0.916816 0.416945
vt 0.916816 0.000129
s 0
usemtl Material
f 5/1/1 3/2/1 1/3/1
f 3/2/2 8/4/2 4/5/2
f 7/6/3 6/7/3 8/8/3
f 2/9/4 8/4/4 6/10/4
f 1/11/5 4/12/5 2/13/5
f 5/14/6 2/9/6 6/10/6
f 9/3/1 15/15/1 11/2/1
f 11/2/7 16/4/7 12/5/7
f 15/6/8 14/7/8 16/8/8
f 10/9/4 16/4/4 14/10/4
f 9/11/9 12/12/9 10/13/9
f 14/10/10 9/16/10 10/9/10
f 21/1/1 19/2/1 17/3/1
f 19/2/11 24/4/11 20/5/11
f 23/6/12 22/7/12 24/8/12
f 22/10/4 20/5/4 24/4/4
f 17/11/13 20/12/13 18/13/13
f 21/14/14 18/9/14 22/10/14
f 29/1/1 27/2/1 25/3/1
f 27/2/15 32/4/15 28/5/15
f 32/8/16 29/17/16 30/7/16
f 30/10/4 28/5/4 32/4/4
f 25/11/17 28/12/17 26/13/17
f 29/14/18 26/9/18 30/10/18
f 33/3/1 39/15/1 35/2/1
f 35/2/19 40/4/19 36/5/19
f 39/6/20 38/7/20 40/8/20
f 34/9/4 40/4/4 38/10/4
f 33/11/21 36/12/21 34/13/21
f 37/14/22 34/9/22 38/10/22
f 45/1/1 43/2/1 41/3/1
f 43/2/23 48/4/23 44/5/23
f 47/6/24 46/7/24 48/8/24
f 46/10/4 44/5/4 48/4/4
f 41/11/25 44/12/25 42/13/25
f 46/10/26 41/16/26 42/9/26
f 53/1/1 51/2/1 49/3/1
f 51/2/27 56/4/27 52/5/27
f 55/6/28 54/7/28 56/8/28
f 54/10/4 52/5/4 56/4/4
f 49/11/29 52/12/29 50/13/29
f 53/14/30 50/9/30 54/10/30
f 61/1/1 59/2/1 57/3/1
f 59/2/31 64/4/31 60/5/31
f 63/6/32 62/7/32 64/8/32
f 62/10/4 60/5/4 64/4/4
f 57/11/33 60/12/33 58/13/33
f 61/14/34 58/9/34 62/10/34
f 65/3/1 71/15/1 67/2/1
f 68/5/35 71/15/35 72/4/35
f 71/6/36 70/7/36 72/8/36
f 66/9/4 72/4/4 70/10/4
f 65/11/37 68/12/37 66/13/37
f 69/14/38 66/9/38 70/10/38
f 73/3/1 79/15/1 75/2/1
f 75/2/39 80/4/39 76/5/39
f 79/6/40 78/7/40 80/8/40
f 74/9/4 80/4/4 78/10/4
f 73/11/41 76/12/41 74/13/41
f 77/14/42 74/9/42 78/10/42
f 81/3/1 87/15/1 83/2/1
f 84/5/43 87/15/43 88/4/43
f 87/6/44 86/7/44 88/8/44
f 82/9/4 88/4/4 86/10/4
f 81/11/45 84/12/45 82/13/45
f 85/14/46 82/9/46 86/10/46
f 89/3/1 95/15/1 91/2/1
f 91/2/47 96/4/47 92/5/47
f 96/8/48 93/17/48 94/7/48
f 90/9/4 96/4/4 94/10/4
f 89/11/49 92/12/49 90/13/49
f 93/14/50 90/9/50 94/10/50
f 101/1/1 99/2/1 97/3/1
f 99/2/51 104/4/51 100/5/51
f 103/6/52 102/7/52 104/8/52
f 102/10/4 100/5/4 104/4/4
f 97/11/53 100/12/53 98/13/53
f 101/14/54 98/9/54 102/10/54
f 105/3/1 111/15/1 107/2/1
f 108/5/55 111/15/55 112/4/55
f 111/6/56 110/7/56 112/8/56
f 106/9/4 112/4/4 110/10/4
f 105/11/57 108/12/57 106/13/57
f 109/14/58 106/9/58 110/10/58
f 113/3/1 119/15/1 115/2/1
f 115/2/59 120/4/59 116/5/59
f 119/6/60 118/7/60 120/8/60
f 114/9/4 120/4/4 118/10/4
f 113/11/61 116/12/61 114/13/61
f 117/14/62 114/9/62 118/10/62
f 5/1/1 7/15/1 3/2/1
f 3/2/2 7/15/2 8/4/2
f 7/6/3 5/17/3 6/7/3
f 2/9/4 4/5/4 8/4/4
f 1/11/5 3/18/5 4/12/5
f 5/14/6 1/16/6 2/9/6
f 9/3/1 13/1/1 15/15/1
f 11/2/7 15/15/7 16/4/7
f 15/6/8 13/17/8 14/7/8
f 10/9/4 12/5/4 16/4/4
f 9/11/9 11/18/9 12/12/9
f 14/10/10 13/14/10 9/16/10
f 21/1/1 23/15/1 19/2/1
f 19/2/11 23/15/11 24/4/11
f 23/6/12 21/17/12 22/7/12
f 22/10/4 18/9/4 20/5/4
f 17/11/13 19/18/13 20/12/13
f 21/14/14 17/16/14 18/9/14
f 29/1/1 31/15/1 27/2/1
f 27/2/15 31/15/15 32/4/15
f 32/8/16 31/6/16 29/17/16
f 30/10/4 26/9/4 28/5/4
f 25/11/17 27/18/17 28/12/17
f 29/14/18 25/16/18 26/9/18
f 33/3/1 37/1/1 39/15/1
f 35/2/63 39/15/63 40/4/63
f 39/6/20 37/17/20 38/7/20
f 34/9/4 36/5/4 40/4/4
f 33/11/21 35/18/21 36/12/21
f 37/14/22 33/16/22 34/9/22
f 45/1/1 47/15/1 43/2/1
f 43/2/23 47/15/23 48/4/23
f 47/6/24 45/17/24 46/7/24
f 46/10/4 42/9/4 44/5/4
f 41/11/25 43/18/25 44/12/25
f 46/10/26 45/14/26 41/16/26
f 53/1/1 55/15/1 51/2/1
f 51/2/27 55/15/27 56/4/27
f 55/6/28 53/17/28 54/7/28
f 54/10/4 50/9/4 52/5/4
f 49/11/29 51/18/29 52/12/29
f 53/14/30 49/16/30 50/9/30
f 61/1/1 63/15/1 59/2/1
f 59/2/31 63/15/31 64/4/31
f 63/6/32 61/17/32 62/7/32
f 62/10/4 58/9/4 60/5/4
f 57/11/33 59/18/33 60/12/33
f 61/14/34 57/16/34 58/9/34
f 65/3/1 69/1/1 71/15/1
f 68/5/35 67/2/35 71/15/35
f 71/6/36 69/17/36 70/7/36
f 66/9/4 68/5/4 72/4/4
f 65/11/37 67/18/37 68/12/37
f 69/14/38 65/16/38 66/9/38
f 73/3/1 77/1/1 79/15/1
f 75/2/39 79/15/39 80/4/39
f 79/6/40 77/17/40 78/7/40
f 74/9/4 76/5/4 80/4/4
f 73/11/41 75/18/41 76/12/41
f 77/14/42 73/16/42 74/9/42
f 81/3/1 85/1/1 87/15/1
f 84/5/43 83/2/43 87/15/43
f 87/6/44 85/17/44 86/7/44
f 82/9/4 84/5/4 88/4/4
f 81/11/45 83/18/45 84/12/45
f 85/14/46 81/16/46 82/9/46
f 89/3/1 93/1/1 95/15/1
f 91/2/47 95/15/47 96/4/47
f 96/8/48 95/6/48 93/17/48
f 90/9/4 92/5/4 96/4/4
f 89/11/49 91/18/49 92/12/49
f 93/14/50 89/16/50 90/9/50
f 101/1/1 103/15/1 99/2/1
f 99/2/51 103/15/51 104/4/51
f 103/6/52 101/17/52 102/7/52
f 102/10/4 98/9/4 100/5/4
f 97/11/53 99/18/53 100/12/53
f 101/14/54 97/16/54 98/9/54
f 105/3/1 109/1/1 111/15/1
f 108/5/55 107/2/55 111/15/55
f 111/6/56 109/17/56 110/7/56
f 106/9/4 108/5/4 112/4/4
f 105/11/57 107/18/57 108/12/57
f 109/14/58 105/16/58 106/9/58
f 113/3/1 117/1/1 119/15/1
f 115/2/59 119/15/59 120/4/59
f 119/6/60 117/17/60 118/7/60
f 114/9/4 116/5/4 120/4/4
f 113/11/61 115/18/61 116/12/61
f 117/14/62 113/16/62 114/9/62
